<svg width="90" height="90" viewBox="0 0 90 90" fill="none" xmlns="http://www.w3.org/2000/svg">
<path d="M11.49 28.1625C14.61 21.9497 19.3964 16.7269 25.3141 13.078C31.2318 9.4291 38.0477 7.49781 45 7.5C55.1063 7.5 63.5963 11.2163 70.0875 17.2688L59.3363 28.0238C55.4475 24.3075 50.505 22.4138 45 22.4138C35.2313 22.4138 26.9625 29.0138 24.0188 37.875C23.2688 40.125 22.8413 42.525 22.8413 45C22.8413 47.475 23.2688 49.875 24.0188 52.125C26.9663 60.99 35.2313 67.5863 45 67.5863C50.0438 67.5863 54.3375 66.255 57.6975 64.005C59.6454 62.7225 61.313 61.0583 62.5995 59.1131C63.886 57.1679 64.7647 54.982 65.1825 52.6875H45V38.1825H80.3175C80.76 40.635 81 43.1925 81 45.8513C81 57.2738 76.9125 66.8887 69.8175 73.4137C63.615 79.1437 55.125 82.5 45 82.5C40.0749 82.502 35.1976 81.5334 30.647 79.6495C26.0964 77.7656 21.9617 75.0035 18.4791 71.5209C14.9965 68.0383 12.2344 63.9036 10.3505 59.353C8.46665 54.8024 7.49803 49.9251 7.5 45C7.5 38.9475 8.9475 33.225 11.49 28.1625Z" fill="white"/>
</svg>
